<svg width="1914" height="1411" viewBox="0 0 1914 1411" fill="none" xmlns="http://www.w3.org/2000/svg">
<rect x="433.61" y="574.06" width="1080.2" height="780.95" fill="#72655F"/>
<rect x="314.132" y="1346.81" width="1286.84" height="64.1877" fill="#D8C6B9"/>
<path d="M389.051 606.154H479.149L484.536 1355.01H382.685L389.051 606.154Z" fill="#DAC8BB"/>
<path d="M1436.94 606.154H1527.03L1532.42 1355.01H1430.57L1436.94 606.154Z" fill="#DAC8BB"/>
<rect x="273" y="511.06" width="1368.13" height="30.9052" fill="#E4D2C4"/>
<rect x="314.132" y="541.966" width="1286.84" height="64.1877" fill="#D8C6B9"/>
<path d="M933.458 14.9715C947.833 5.86794 966.167 5.86791 980.542 14.9715L1657.62 443.775C1694.85 467.354 1678.14 524.947 1634.07 524.947H279.925C235.856 524.947 219.153 467.354 256.384 443.775L933.458 14.9715Z" fill="#E2D0C2"/>
<path d="M957 124.4L1439.8 430.139H474.201L957 124.4Z" fill="#BAA99D"/>
</svg>
