<svg width="6859" height="2392" viewBox="0 0 6859 2392" fill="none" xmlns="http://www.w3.org/2000/svg">
<path fill-rule="evenodd" clip-rule="evenodd" d="M2213.37 1381H0V2392H6859V1381H4653.55C4523.59 1471.33 4375.26 1543.75 4223.7 1617.75C3936.84 1757.8 3638.39 1903.51 3431 2187C3216.04 1905.62 2922.63 1760.34 2642.88 1621.82C2490.73 1546.48 2342.62 1473.14 2213.37 1381Z" fill="#BC002D"/>
<path d="M4095.28 994.901C4096.27 994.605 4093.86 962.274 4093.83 958.622C4093.75 950.851 4082.2 949.333 4076.68 944.225C4068.54 936.688 4062.24 928.001 4053.38 921.255C4043.28 913.566 4032.76 907.502 4021.07 902.019C3998.38 891.378 3980.16 877.082 3956.38 869.62C3843.68 834.252 3725.99 825.569 3608.81 814.591C3530.6 807.266 3453.59 792.071 3375.11 786.741C3291.97 781.094 3208.54 786.862 3125.39 788.601C3034.8 790.494 2944.15 790.575 2853.55 791.494C2840.35 791.628 2812.66 789.397 2802.64 800.646C2794.31 809.998 2789.88 827.096 2784.82 838.605C2775.13 860.602 2768 883.45 2755.66 904.203C2749.69 914.249 2692.65 991.666 2709.39 997.499C2721.4 1001.68 2734.42 1003.35 2746.46 1007.51C2760.6 1012.4 2776.12 1012.49 2790.54 1016.91C2812.57 1023.68 2836 1028.55 2858.44 1033.76C2870.87 1036.65 2885.61 1041.96 2896.9 1047.95C2902.75 1051.05 2908.3 1051.88 2914.5 1053.7C2920.05 1055.34 2922.66 1060.87 2928.62 1062.19C2951.67 1067.31 2975.46 1069.79 2998.51 1075.52C3024.73 1082.03 3052.06 1084.1 3078.65 1089.14C3110.9 1095.25 3141.62 1110.06 3172.61 1120.97C3186.22 1125.77 3198.88 1133.14 3212.19 1138.65C3219.48 1141.66 3226.63 1145.81 3233.62 1149.5C3236.98 1151.27 3239.71 1156.11 3243.4 1156.68C3250.01 1157.72 3256.87 1166.65 3261.63 1171.07C3267.48 1176.5 3275.32 1176.51 3282.49 1179.36C3299.73 1186.21 3322.11 1182.6 3340.67 1182.41C3362.7 1182.19 3384.47 1179.85 3406.35 1179.32C3452.08 1178.21 3495.6 1183.27 3541.17 1182.8C3566.35 1182.55 3587.98 1184.36 3610.29 1172.93C3617.6 1169.18 3626.64 1165.29 3634.47 1162.97C3640.2 1161.27 3645.7 1155.74 3651.39 1154.97C3665.48 1153.06 3678.27 1134.77 3692.59 1132.83C3703.29 1131.38 3710.7 1124.21 3721.49 1122.55C3733 1120.79 3743.74 1113.94 3755.39 1112.76C3778.14 1110.46 3799.19 1103.64 3820.24 1094.97C3867.6 1075.47 3916.88 1059.64 3962.25 1035.38C3991.79 1019.58 4022.81 1014.91 4054.36 1005.03C4067.89 1000.8 4082.22 998.776 4095.28 994.901Z" fill="#722727"/>
<mask id="mask0_564_130" style="mask-type:alpha" maskUnits="userSpaceOnUse" x="2664" y="613" width="1469" height="562">
<path d="M4100.37 700.428C4099.17 670.198 4082.82 643.643 4082.51 613.376C4039.86 631.575 3995.16 649.744 3956.76 674.503C3928.48 692.733 3909.34 721.689 3882.7 741.755C3849.89 766.467 3821.21 791.859 3783.2 811.613C3732.45 837.995 3676.34 861.766 3621.71 882.1C3595.34 891.912 3568.11 899.691 3542.3 910.288C3530.04 915.325 3515.13 917.42 3503.17 911.468C3497.18 908.483 3477.76 901.164 3471.95 901.223C3453.41 901.411 3440.91 893.064 3423.26 889.59C3346.14 874.411 3262.01 866.648 3183.18 859.95C3124.06 854.928 3050.21 855.873 2996.44 836.419C2986.94 832.983 2962.28 829.929 2951.57 829.05C2948.93 828.834 2929.22 822.941 2926.97 821.476C2895.93 801.325 2832.09 798.577 2794.71 798.957C2773.72 799.17 2709.27 790.724 2709.56 819.184C2709.7 832.682 2700.4 853.968 2694.01 866.871C2687.67 879.682 2692.74 896.212 2685.95 909.2C2678.65 923.178 2681.73 947.594 2670.66 958.84C2651.35 978.462 2684.97 979.623 2702.94 979.44C2756.48 978.897 2809.48 991.862 2860 1006.01C2905.08 1018.64 2947.79 1033.83 2993.84 1045.14C3043.19 1057.26 3095.62 1068.83 3142.8 1086.07C3206.62 1109.4 3273.46 1134.79 3325.22 1173.02C3330.29 1176.76 3353.31 1173.52 3359.18 1173.46L3449.71 1172.54C3503.27 1171.99 3556.91 1167.93 3610.22 1167.39C3618.06 1167.31 3625.38 1168.17 3629.73 1161.71C3634.93 1154 3659.82 1145.12 3669.83 1140.38C3687.77 1131.89 3714.7 1127.04 3730.18 1116.1C3741.04 1108.43 3754.77 1108.75 3766.81 1101.64C3774.93 1096.86 3793.1 1088.99 3802.98 1087.98C3820.98 1086.13 3848.82 1068.47 3864.48 1060.75C3884.62 1050.83 3904.82 1041.88 3925.74 1033.53C3945.77 1025.54 3965.36 1014.04 3986.32 1008.66C4006.39 1003.51 4029.66 993.293 4047.13 983.401C4059.19 976.572 4071.57 966.152 4086.09 965.403C4097.49 964.814 4103.52 958.184 4114.78 958.07C4126.97 957.946 4133.09 957.255 4132.57 945.763C4131.61 924.817 4119.43 905.821 4119.21 884.092C4119.14 876.846 4118.45 852.44 4112 847.198C4106.66 842.861 4086.23 834.466 4084.95 829.87C4081.55 817.694 4112.43 802.549 4114 789.088C4114.94 781.018 4111.62 772.01 4108.79 764.344L4108.56 763.716C4101.57 744.76 4101.16 720.212 4100.37 700.428Z" fill="#C19786"/>
</mask>
<g mask="url(#mask0_564_130)">
<path d="M4100.37 700.428C4099.16 670.198 4082.82 643.643 4082.51 613.376C4039.86 631.575 3995.16 649.744 3956.76 674.503C3928.48 692.733 3909.34 721.689 3882.7 741.755C3849.89 766.467 3821.21 791.859 3783.2 811.613C3732.45 837.995 3676.34 861.766 3621.71 882.1C3595.34 891.912 3568.11 899.691 3542.3 910.288C3530.04 915.325 3515.13 917.42 3503.17 911.468C3497.18 908.483 3477.76 901.164 3471.95 901.223C3453.41 901.411 3440.91 893.064 3423.26 889.59C3346.14 874.411 3262.01 866.648 3183.18 859.95C3124.06 854.928 3050.21 855.873 2996.44 836.419C2986.94 832.983 2962.28 829.929 2951.57 829.05C2948.93 828.834 2929.22 822.941 2926.97 821.476C2895.93 801.325 2832.09 798.577 2794.71 798.957C2773.72 799.17 2709.27 790.724 2709.56 819.184C2709.7 832.682 2700.4 853.968 2694.01 866.871C2687.67 879.682 2692.74 896.212 2685.95 909.2C2678.65 923.178 2681.73 947.594 2670.66 958.84C2651.35 978.462 2684.97 979.623 2702.94 979.44C2756.48 978.897 2809.48 991.862 2860 1006.01C2905.08 1018.64 2947.79 1033.83 2993.84 1045.14C3043.19 1057.26 3095.62 1068.83 3142.8 1086.07C3206.62 1109.4 3273.46 1134.79 3325.22 1173.02C3330.29 1176.76 3353.31 1173.52 3359.18 1173.46L3449.71 1172.54C3503.27 1171.99 3556.91 1167.93 3610.22 1167.39C3618.06 1167.31 3625.38 1168.17 3629.73 1161.71C3634.93 1154 3659.82 1145.12 3669.83 1140.38C3687.77 1131.89 3714.7 1127.04 3730.18 1116.1C3741.04 1108.43 3754.77 1108.75 3766.81 1101.64C3774.93 1096.86 3793.1 1088.99 3802.98 1087.98C3820.98 1086.13 3848.82 1068.47 3864.48 1060.75C3884.62 1050.83 3904.82 1041.88 3925.74 1033.53C3945.77 1025.54 3965.36 1014.04 3986.32 1008.66C4006.39 1003.51 4029.66 993.293 4047.13 983.401C4059.19 976.572 4071.57 966.152 4086.09 965.403C4097.49 964.814 4103.52 958.184 4114.78 958.07C4126.97 957.946 4133.09 957.255 4132.57 945.763C4131.61 924.817 4119.43 905.821 4119.21 884.092C4119.14 876.846 4118.45 852.44 4112 847.198C4106.66 842.861 4086.23 834.466 4084.95 829.87C4081.55 817.694 4112.43 802.549 4114 789.088C4114.94 781.018 4111.62 772.011 4108.79 764.344L4108.56 763.716C4101.57 744.76 4101.16 720.212 4100.37 700.428Z" fill="#C19786"/>
<path d="M2711.51 899.798C2711.3 878.777 2700.3 818.062 2698.12 838.896C2697.26 836.808 2697.11 853.227 2694.56 851.634C2685.02 845.66 2675.46 854.756 2667.85 861.997L2667.7 862.138C2660.61 868.88 2650.72 884.044 2650.16 895.834C2649.75 904.594 2652.47 917.073 2649.32 925.126C2644.14 938.4 2630.81 950.853 2622.73 961.736C2615.85 971.003 2617.83 982.908 2617.95 994.597C2618.1 1009.58 2617.67 1011.74 2628.94 1014.95C2634.64 1016.57 2637.95 1023.25 2643.79 1023.62C2645.89 1023.75 2651.72 1022.12 2653.45 1024.23C2666.99 1040.71 2675.41 1018.67 2678.73 997.861C2680.41 987.314 2681.57 981.684 2689.3 976.232C2695.19 972.074 2711.62 957.619 2712.01 949.187C2712.4 941.079 2708.91 933.052 2709.21 924.518C2709.49 916.329 2711.6 908.549 2711.51 899.798Z" fill="#2F8347" stroke="#093917" stroke-linecap="round"/>
<path d="M3677.01 1079.03C3656.49 1086.45 3633.44 1090.37 3611.72 1092.4C3611.66 1086.66 3621.87 1080.54 3626.75 1077.4C3631.72 1074.19 3636.52 1070.68 3642.18 1069.48C3649.88 1067.86 3658.71 1062.65 3666.36 1062.14C3678.26 1061.36 3686.57 1050.56 3698.57 1048.78C3703.07 1048.11 3709.12 1048.67 3713.44 1050.11C3719.23 1052.05 3725.04 1051.08 3730.79 1052.66C3744.26 1056.36 3786.31 1057.95 3772.34 1058.1C3764.23 1058.18 3756.44 1061.04 3748.8 1063.45C3739.5 1066.39 3728.92 1073.39 3719.2 1073.49C3712.79 1073.55 3706.08 1072.3 3699.97 1072.36C3692.09 1072.44 3684.31 1076.39 3677.01 1079.03Z" fill="#2F8347" stroke="#093917" stroke-linecap="round"/>
</g>
<path d="M2818.67 329.869C2841.51 297.247 2835.43 245.648 2861.34 215.121C2861.71 252.211 2895.53 234.654 2913 250.82C2924.96 261.893 2950.08 260.841 2966.16 262.747C3003.39 267.159 3038.56 270.204 3074.41 280.23C3097.58 286.711 3090.73 281.026 3095.13 261.438C3097.33 251.645 3186.01 267.352 3196.12 275.232C3216.27 290.924 3219.68 263.102 3223.75 249.548C3228.31 234.366 3247.89 251.146 3256.21 257.686C3284.69 280.082 3328.98 295.314 3349.27 324.484C3357.46 336.251 3381.55 349.101 3393.9 354.139C3405.45 358.852 3414.46 370.031 3429.62 365.773C3439.71 362.94 3458.78 337.731 3467.63 331.751C3482.15 321.934 3499.93 314.338 3509.64 300.746C3534.24 266.332 3562.63 247.868 3594.49 220.381C3604.75 211.532 3633.03 214.816 3646.01 217.742C3674.69 224.207 3706.65 218.611 3735.13 214.955C3751.09 212.907 3766.65 213.242 3782.39 209.771C3789.38 208.229 3811.25 183.201 3811.42 199.127C3811.51 208.731 3806.05 209.589 3803.64 218.259C3801.11 227.363 3803.62 237.223 3801.94 246.502C3798.05 267.88 3795.32 276.624 3812.02 258.631C3824.82 244.84 3830.77 217.702 3847.37 208.406C3866.44 197.724 3856.25 235.06 3877.83 216.565C3906.05 192.383 3938.05 176.748 3954.52 142.163C3959.65 131.394 3979.99 105.066 3987.74 127.713C3992.66 142.098 3988.44 157.531 3992.92 172.117C3997.85 188.125 4004.18 201.898 4004.35 218.809C4005.02 284.281 4021.57 350.656 4042.18 412.95C4055.32 452.656 4056.4 488.844 4056.82 529.94L4057.13 560.751C4057.15 562.912 4057.11 564.461 4057.04 565.524C4057.4 564.171 4058.16 562.367 4059.62 560.961C4070.4 550.569 4063.03 587.741 4068.86 587.682C4072.15 587.648 4082.04 575.671 4083.99 581.883C4085.87 587.885 4084.39 596.67 4084.45 602.813C4084.7 627.334 4048.75 618.097 4048.98 641.043C4049.04 647.318 4058.1 695.469 4075.28 680.293C4083.28 673.219 4093.49 657.527 4106.42 657.396C4107.83 657.381 4112.58 678.96 4113.13 680.849C4126.21 726.022 4136.78 772.081 4151.37 816.888C4162.4 850.791 4166.53 864.729 4121.99 867.052C4093.54 868.536 4066.67 883.044 4038.03 886.721C4011.04 890.186 3986.47 898.291 3960 902.567C3903.68 911.664 3852.05 937.222 3801.93 962.035L3799.5 963.236C3758.48 983.537 3712.57 996.503 3674.59 1021.9C3667.89 1026.38 3666.02 1034.47 3660.32 1038.74C3641.44 1052.91 3613.46 1050.79 3590.86 1056.37C3534.31 1054.6 3482.51 1085.34 3446.85 1085.78C3429.08 1085.99 3436.83 1087.86 3413.47 1080.76C3398.56 1076.23 3387.47 1062.66 3372.89 1056.71C3356.66 1050.09 3339.52 1048.52 3323.44 1042.63C3310.05 1037.73 3304.08 1029.75 3288.92 1026.99C3252.86 1020.43 3218.9 1006.66 3182.08 1001.73C3135.21 995.448 3089.18 992.337 3042.93 982.205C3006.18 974.152 2969.53 965.735 2934.07 953.437C2918.16 947.919 2906.28 935.225 2891.01 930.587C2880.01 927.246 2869.15 923.678 2859.26 917.973C2838.36 905.919 2800.49 907.561 2776.71 906.109C2753.25 904.675 2728.5 899.004 2705.23 904.952C2692.96 908.089 2666.9 917.342 2653.63 923.906C2653.17 927.938 2652.1 930.895 2649.97 930.917C2642.11 930.996 2645.43 927.966 2653.63 923.906C2654.56 915.864 2653.13 903.545 2653.16 901.717C2653.3 890.764 2661.62 883.583 2661.83 873.403C2662.55 839.296 2677.35 805.83 2686.73 774.829C2695.77 744.945 2712.73 721.781 2729.75 694.889C2733.42 689.08 2766.97 643.704 2742.43 643.953C2716.78 644.214 2731.84 631.36 2735.18 616.507C2740.66 592.093 2745.69 566.198 2754.84 542.449C2764.48 517.445 2771.18 483.202 2786.64 461.446C2800 442.646 2817.61 403.939 2812.72 380.737C2808.47 360.577 2806.25 347.613 2818.67 329.869Z" fill="#A97966"/>
<path d="M2826.72 289.679C2848.27 257.08 2842.5 205.493 2866.94 174.989C2867.32 212.068 2899.24 194.535 2915.74 210.707C2927.05 221.783 2950.77 220.746 2965.95 222.66C3001.12 227.092 3034.32 230.155 3068.18 240.199C3090.07 246.691 3083.6 241.003 3087.75 221.424C3089.82 211.635 3173.57 227.387 3183.12 235.27C3202.15 250.969 3205.36 223.158 3209.2 209.609C3213.49 194.435 3231.99 211.221 3239.85 217.764C3266.76 240.168 3308.59 255.421 3327.77 284.594C3335.5 296.362 3358.26 309.222 3369.93 314.265C3380.84 318.983 3389.35 330.164 3403.67 325.915C3413.2 323.089 3431.19 297.898 3439.54 291.925C3453.25 282.12 3470.03 274.535 3479.2 260.953C3502.41 226.563 3529.2 208.12 3559.28 180.66C3568.96 171.819 3595.67 175.118 3607.92 178.05C3635.01 184.53 3665.19 178.953 3692.08 175.315C3707.15 173.276 3721.85 173.62 3736.71 170.159C3743.31 168.621 3763.95 143.613 3764.11 159.535C3764.21 169.136 3759.05 169.99 3756.78 178.656C3754.4 187.756 3756.77 197.614 3755.19 206.89C3751.52 228.26 3748.95 236.998 3764.71 219.021C3776.79 205.241 3782.4 178.114 3798.07 168.831C3816.07 158.162 3806.47 195.482 3826.84 177.004C3853.47 152.845 3883.68 137.234 3899.21 102.668C3904.05 91.9053 3923.25 65.5961 3930.58 88.2412C3935.23 102.625 3931.25 118.05 3935.5 132.634C3940.15 148.641 3946.14 162.413 3946.32 179.319C3946.98 244.771 3962.65 311.136 3982.15 373.423C3994.57 413.124 3995.62 449.302 3996.03 490.386L3996.34 521.187C3996.37 523.347 3996.33 524.896 3996.26 525.959C3996.61 524.607 3997.32 522.803 3998.7 521.398C4008.87 511.016 4001.93 548.172 4007.43 548.117C4010.54 548.085 4019.88 536.117 4021.72 542.328C4023.5 548.329 4022.11 557.111 4022.17 563.252C4022.42 587.765 3988.46 578.511 3988.69 601.45C3988.76 607.723 3997.34 655.865 4013.55 640.703C4021.1 633.636 4030.73 617.954 4042.94 617.83C4044.28 617.817 4048.78 639.392 4049.3 641.281C4061.67 686.447 4071.68 732.498 4085.48 777.299C4095.92 811.199 4099.82 825.135 4057.77 827.432C4030.9 828.899 4005.54 843.388 3978.49 847.049C3953.01 850.497 3929.81 858.585 3904.81 862.846C3851.64 871.908 3802.9 897.429 3755.58 922.206L3753.29 923.406C3714.56 943.677 3671.22 956.614 3635.37 981.979C3629.04 986.452 3627.28 994.54 3621.9 998.811C3604.08 1012.96 3577.67 1019.54 3556.32 1025.11C3525.8 1033.07 3476.01 1035.32 3451.55 1057.92C3443.54 1065.31 3447.87 1064.33 3436.88 1067.41C3429.25 1069.54 3418.57 1061.83 3416.75 1058.27C3413.81 1052.55 3407.45 1054.05 3403.94 1047.58C3400.2 1040.69 3395.31 1042.77 3388.82 1040.68C3374.73 1036.14 3364.25 1022.57 3350.48 1016.62C3335.16 1009.99 3318.97 1008.41 3303.78 1002.51C3291.14 997.6 3285.49 989.617 3271.17 986.851C3237.12 980.274 3205.04 966.489 3170.27 961.538C3126.01 955.235 3082.53 952.098 3038.86 941.944C3004.15 933.872 2969.53 925.438 2936.04 913.123C2921.02 907.598 2909.79 894.901 2895.36 890.256C2884.98 886.91 2874.72 883.337 2865.37 877.628C2845.63 865.566 2809.87 867.187 2787.42 865.721C2765.26 864.275 2741.88 858.592 2719.92 864.525C2708.33 867.654 2683.73 876.89 2671.2 883.444C2670.76 887.474 2669.76 890.43 2667.74 890.45C2660.32 890.526 2663.45 887.498 2671.2 883.444C2672.08 875.405 2670.72 863.089 2670.74 861.262C2670.87 850.311 2678.72 843.138 2678.92 832.961C2679.57 798.864 2693.53 765.417 2702.37 734.431C2710.89 704.56 2726.9 681.413 2742.95 654.539C2746.41 648.733 2778.08 603.39 2754.89 603.626C2730.67 603.871 2744.89 591.03 2748.03 576.183C2753.19 551.78 2757.93 525.896 2766.56 502.158C2775.64 477.168 2781.96 442.939 2796.54 421.198C2809.15 402.412 2825.75 363.725 2821.12 340.528C2817.1 320.372 2815 307.411 2826.72 289.679Z" fill="#E5B9A8"/>
<path d="M3325.53 1141.57C3312.02 1153.69 3285.22 1159.99 3270.34 1170.14C3274.26 1177.44 3329.71 1187.66 3336.53 1187.01C3360.64 1184.71 3402.91 1182.47 3427.01 1184.44C3457.04 1186.89 3487.99 1184.63 3518.16 1185.57C3539.04 1186.22 3560.41 1187.66 3581.14 1187.45C3591.59 1186.79 3560.09 1177.16 3558.84 1173.03C3556.16 1164.16 3536.76 1161.03 3531.85 1153.7C3522.03 1139.05 3519.92 1134.62 3501.6 1125.75C3489.42 1119.85 3477.78 1110.13 3464.47 1107.05C3445.45 1102.66 3426.24 1096.01 3407.79 1101.2C3374.93 1110.44 3350.27 1119.37 3325.53 1141.57Z" fill="#722727"/>
<path d="M3039.05 376.494C3048.61 385.856 3049.76 405.972 3045.66 418.219C3043.29 425.3 3049.94 430.851 3055.01 435.822" stroke="#B88571" stroke-width="3" stroke-linecap="round"/>
<path d="M3156.28 635.273C3156.2 626.98 3155.63 618.739 3157.57 610.632" stroke="#B88571" stroke-width="3" stroke-linecap="round"/>
<path d="M3227.19 645.324C3219.63 648.319 3214.24 653.839 3210.41 660.887C3206.84 667.479 3198.23 669.081 3194.32 675.758C3192.75 678.439 3189.11 680.716 3187.9 683.348C3185.87 687.729 3189.25 691.842 3184.59 695.011" stroke="#B88571" stroke-width="3" stroke-linecap="round"/>
<path d="M2802.3 942.086C2809.32 942.794 2826.99 943.949 2830.18 951.209C2835.04 962.238 2852.5 963.856 2860.33 972.11C2863.12 975.056 2869.83 978.758 2873.83 979.498C2885.78 981.712 2899.79 981.288 2911.99 982.189C2924.17 983.089 2935.83 984.808 2947.95 986.442C2957.97 987.792 2965.33 995.223 2974.42 999.171C2988.43 1005.26 2999.34 1016.49 3014.06 1020.75C3031.98 1025.93 3052.94 1024.42 3069.5 1032.5C3086.73 1040.89 3103.12 1045.9 3121.68 1051.21C3130.76 1053.8 3139.05 1057.19 3148.25 1057.09" stroke="#7A4834" stroke-width="3" stroke-linecap="round"/>
<path d="M3619.7 750.489C3628.38 745.809 3636.07 739.916 3644.96 735.803C3649.6 733.661 3655.49 738.343 3659.91 740.121C3663.88 741.719 3672.2 742.556 3675.9 739.253C3680.11 735.492 3681.12 729.717 3685.49 726.451C3688.06 724.538 3689.16 721.123 3692.81 721.515C3695.57 721.811 3693.35 725.744 3697.95 725.698C3704.38 725.632 3708.4 723.651 3714.39 722.002C3724.24 719.286 3734.92 719.78 3745.02 718.946C3754.42 718.17 3763.78 716.56 3773.22 716.464" stroke="#B88571" stroke-width="3" stroke-linecap="round"/>
<path d="M3799 1030.99C3806.03 1023.82 3814.49 1019.57 3823.46 1015.22C3834.44 1009.89 3845.77 1001.1 3857.32 997.385C3863.42 995.423 3868.38 994.577 3874.36 992.114C3882.39 988.808 3890.14 987.901 3897.96 983.483C3904.8 979.618 3911.61 978.194 3918.74 975.822C3925.44 973.595 3929.82 968.878 3935.27 966.087" stroke="#7A4834" stroke-width="3" stroke-linecap="round"/>
<path d="M3925.3 868.939C3923.47 866.744 3920.83 863.467 3917.68 862.87C3915.26 862.895 3911.2 863.731 3910.17 866.098C3909.12 868.534 3904.71 870.345 3902.77 872.032C3896.5 877.474 3886.71 878.564 3879.08 880.909C3873.68 882.567 3868.75 885.38 3863.34 886.928C3854.69 889.402 3846.58 892.913 3838.71 897.246C3830.22 901.913 3820.24 905.045 3813.42 911.998C3808.1 917.429 3801 920.404 3794.01 923.088C3788.42 925.232 3783.18 927.363 3777.4 928.942C3771.21 930.635 3765.15 931.025 3758.86 932.081C3749.66 933.626 3740.18 935.685 3731.41 938.957C3725.15 941.292 3719.46 944.223 3713.4 946.951C3711.67 947.729 3709.67 949.088 3707.91 949.611C3706.75 949.955 3704.92 949.659 3704.19 950.951C3699.97 958.411 3704.96 966.201 3705.04 974.03C3705.07 977.17 3708.93 981.779 3706.96 984.513C3705.06 987.162 3702.01 989.069 3699.92 991.442C3698.72 992.803 3702.98 1002.13 3705.26 1000.2C3707.03 998.691 3709.92 998.135 3711.91 997.006C3720.87 991.907 3731.71 990.497 3740.64 984.649C3746.63 980.73 3750.9 975.194 3757.35 971.763C3763.57 968.453 3770.28 966.943 3776.81 964.535C3784.85 961.571 3792.68 958.879 3800.58 955.397C3805.92 953.047 3810.83 949.145 3815.85 946.172C3819.93 943.762 3824.67 942.745 3829.22 941.523C3833.63 940.336 3837.51 937.814 3842.01 936.706C3844.36 936.13 3846.64 934.982 3848.8 933.946C3851.87 932.477 3855.95 932.3 3859.23 931.106C3862.78 929.812 3866.45 929.242 3870 927.829C3872.43 926.864 3874.85 927.366 3877.28 926.626C3890.62 922.58 3903.03 915.119 3916.04 910.175C3921.91 907.945 3928.53 903.127 3934.94 902.953C3940.59 902.8 3946.3 903.12 3951.95 902.78C3953.68 902.676 3947.3 897.386 3946.37 896.587C3943.16 893.833 3940.24 890.972 3938.08 887.341C3936.8 885.195 3935.43 884.475 3934.72 881.603C3934.37 880.194 3933.12 878.601 3932.21 877.444L3932.16 877.376C3929.92 874.521 3927.63 871.725 3925.3 868.939Z" fill="#6D4131"/>
<path d="M3736.53 304.614C3704.61 304.614 3613 358.227 3613 392.383C3620.5 387.383 3638 392.383 3657 385.883C3676 379.383 3675 397.596 3692.16 397.596H3780.28C3816.76 397.596 3870.12 388.225 3903.04 372.679C3933.32 358.384 3968.7 364.294 3999.07 350.801C4022.48 340.393 4065.65 348.37 4091.44 348.37C4125.01 348.37 4146.53 364.895 4176.82 369.944C4208.4 375.207 4303.49 387.828 4272.24 380.883C4259.15 377.974 4217.3 337.998 4209.34 324.061C4202.48 312.062 4187.49 316.658 4176.22 315.249C4158.71 313.061 4134.21 305.771 4120.61 294.89C4101.05 279.242 4094.94 253.55 4078.07 233.51C4062.67 215.218 4039.11 178.59 4010 195.223C3986.64 208.575 3967.26 225.656 3944.07 241.714C3928.78 252.295 3918.21 270.55 3900.31 252.653C3893.47 245.811 3885.65 228.593 3875.7 228.04C3841.6 226.146 3826.6 240.726 3808.85 271.797C3789.9 304.959 3771.1 304.614 3736.53 304.614Z" fill="#BCC6F1"/>
<path d="M3006.05 1191.88C3044.28 1191.88 3154 1258.84 3154 1301.49C3145.02 1295.25 3124.06 1301.49 3101.3 1293.37C3078.55 1285.26 3079.74 1308 3059.19 1308H2953.65C2909.96 1308 2846.05 1296.3 2806.62 1276.88C2770.37 1259.03 2727.98 1266.41 2691.62 1249.56C2663.57 1236.56 2611.87 1246.53 2580.99 1246.53C2540.78 1246.53 2515 1267.16 2478.72 1273.47C2440.9 1280.04 2327.02 1295.8 2364.45 1287.13C2380.13 1283.5 2430.24 1233.57 2439.78 1216.17C2447.99 1201.18 2465.95 1206.92 2479.45 1205.16C2500.42 1202.43 2529.76 1193.33 2546.05 1179.74C2569.48 1160.2 2576.79 1128.11 2597 1103.09C2615.45 1080.24 2643.66 1034.5 2678.52 1055.27C2706.5 1071.95 2729.71 1093.28 2757.49 1113.33C2775.8 1126.55 2788.46 1149.34 2809.9 1126.99C2818.09 1118.45 2827.45 1096.95 2839.37 1096.26C2880.21 1093.89 2898.17 1112.1 2919.44 1150.9C2942.13 1192.31 2964.64 1191.88 3006.05 1191.88Z" fill="#BCC6F1"/>
<rect x="4178.41" y="978.52" width="246" height="260.261" rx="20" transform="rotate(25.8329 4178.41 978.52)" fill="#BCC7F1"/>
<path d="M4139.41 1104.9C4144.92 1093.51 4159.5 1090.13 4170.38 1096.61C4219.88 1126.09 4263.52 1123.81 4322.16 1163.11C4330.1 1168.43 4332.56 1178.84 4328.39 1187.44L4290.21 1266.31C4285.4 1276.25 4273.44 1280.41 4263.5 1275.6L4114.02 1203.23C4104.08 1198.42 4099.92 1186.46 4104.74 1176.51L4139.41 1104.9Z" fill="#5C6FBE"/>
<path d="M4225.74 1126.21C4262.87 1149.98 4285.12 1160.98 4327.46 1175.46C4303.65 1145.83 4250.5 1129.88 4225.74 1126.21Z" fill="#C1C9EC"/>
<rect x="4198.69" y="1018.44" width="24.9565" height="24.9565" rx="12.4783" transform="rotate(25.8329 4198.69 1018.44)" fill="white"/>
<rect x="4183.47" y="1049.89" width="24.9565" height="61.3217" rx="12.4783" transform="rotate(25.8329 4183.47 1049.89)" fill="white"/>
<path d="M4257.63 952.334C4260.39 946.63 4266.97 943.852 4272.96 945.919C4310.72 958.942 4334.2 970.049 4366.88 991.294C4372.16 994.728 4374.01 1001.58 4371.27 1007.25C4368.5 1012.97 4361.89 1015.75 4355.88 1013.67C4318.71 1000.75 4295.19 989.589 4262.07 968.297C4256.76 964.882 4254.88 958.018 4257.63 952.334Z" fill="#BCC6F1"/>
<mask id="mask1_564_130" style="mask-type:alpha" maskUnits="userSpaceOnUse" x="4247" y="969" width="103" height="83">
<rect x="4268.23" y="969.719" width="90.5565" height="47.0609" transform="rotate(25.8329 4268.23 969.719)" fill="#BCC6F1"/>
</mask>
<g mask="url(#mask1_564_130)">
<rect x="4268.23" y="969.719" width="90.5565" height="47.0609" transform="rotate(25.8329 4268.23 969.719)" fill="#BCC6F1"/>
<path d="M4362.8 1016.55C4362.2 1017.79 4335.23 1012.71 4305.81 998.466C4276.39 984.223 4255.67 966.216 4256.27 964.975C4256.87 963.735 4278.41 980.051 4307.83 994.294C4337.25 1008.54 4363.4 1015.31 4362.8 1016.55Z" fill="#8D9BD7"/>
</g>
<mask id="mask2_564_130" style="mask-type:alpha" maskUnits="userSpaceOnUse" x="4284" y="903" width="95" height="89">
<path d="M4305.66 903.85C4338.2 911.203 4354.1 918.848 4378.83 939.27L4346.9 991.312C4324.81 983.339 4311.55 977.425 4284.32 961.018L4305.66 903.85Z" fill="#663706"/>
</mask>
<g mask="url(#mask2_564_130)">
<path d="M4305.66 903.85C4338.2 911.203 4354.1 918.848 4378.83 939.27L4346.9 991.312C4324.81 983.339 4311.55 977.425 4284.32 961.018L4305.66 903.85Z" fill="#995A18"/>
<ellipse cx="4346.91" cy="912.745" rx="58.8261" ry="14.2609" transform="rotate(25.8329 4346.91 912.745)" fill="#663706"/>
</g>
<rect width="162.385" height="171.799" rx="20" transform="matrix(-0.900068 0.435749 0.435749 0.900068 2532.08 221.254)" fill="#BCC7F1"/>
<path d="M2561.45 312.176C2555.94 300.784 2541.35 297.439 2530.1 303.241C2501.65 317.917 2475.42 319.03 2441.88 340.056C2433.78 345.132 2431.34 355.594 2435.51 364.196L2455.31 405.105C2460.13 415.047 2472.09 419.205 2482.03 414.392L2568.46 372.548C2578.4 367.735 2582.56 355.774 2577.75 345.832L2561.45 312.176Z" fill="#BE5C5C"/>
<path d="M2500.83 318.743C2476.33 334.435 2461.64 341.692 2433.69 351.251C2449.4 331.698 2484.49 321.165 2500.83 318.743Z" fill="#E38D8D"/>
<rect width="16.4738" height="16.4738" rx="8.23692" transform="matrix(-0.900068 0.435749 0.435749 0.900068 2518.69 247.605)" fill="white"/>
<rect width="16.4738" height="40.4786" rx="8.23692" transform="matrix(-0.900068 0.435749 0.435749 0.900068 2528.74 268.365)" fill="white"/>
<path d="M2479.78 203.968C2477.96 200.204 2473.62 198.37 2469.66 199.734C2444.74 208.331 2429.24 215.663 2407.67 229.686C2404.18 231.953 2402.96 236.473 2404.77 240.217C2406.6 243.994 2410.96 245.832 2414.93 244.455C2439.47 235.931 2454.99 228.561 2476.85 214.506C2480.36 212.252 2481.6 207.721 2479.78 203.968Z" fill="#BCC6F1"/>
<mask id="mask3_564_130" style="mask-type:alpha" maskUnits="userSpaceOnUse" x="2418" y="215" width="69" height="55">
<rect width="59.7765" height="31.0649" transform="matrix(-0.900068 0.435749 0.435749 0.900068 2472.79 215.445)" fill="#BCC6F1"/>
</mask>
<g mask="url(#mask3_564_130)">
<rect width="59.7765" height="31.0649" transform="matrix(-0.900068 0.435749 0.435749 0.900068 2472.79 215.445)" fill="#BCC6F1"/>
<path d="M2410.36 246.36C2410.75 247.179 2428.56 243.822 2447.98 234.421C2467.4 225.019 2481.08 213.133 2480.68 212.314C2480.29 211.495 2466.07 222.265 2446.65 231.667C2427.23 241.068 2409.96 245.541 2410.36 246.36Z" fill="#8D9BD7"/>
</g>
<mask id="mask4_564_130" style="mask-type:alpha" maskUnits="userSpaceOnUse" x="2399" y="171" width="64" height="59">
<path d="M2448.08 171.963C2426.6 176.817 2416.11 181.863 2399.78 195.344L2420.86 229.697C2435.44 224.434 2444.19 220.531 2462.16 209.7L2448.08 171.963Z" fill="#663706"/>
</mask>
<g mask="url(#mask4_564_130)">
<path d="M2448.08 171.963C2426.6 176.817 2416.11 181.863 2399.78 195.344L2420.86 229.697C2435.44 224.434 2444.19 220.531 2462.16 209.7L2448.08 171.963Z" fill="#995A18"/>
<ellipse cx="38.8312" cy="9.41362" rx="38.8312" ry="9.41362" transform="matrix(-0.900068 0.435749 0.435749 0.900068 2451.7 152.441)" fill="#663706"/>
</g>
</svg>
